<mxfile host="Electron" agent="Mozilla/5.0 (X11; Linux x86_64) AppleWebKit/537.36 (KHTML, like Gecko) draw.io/24.7.17 Chrome/128.0.6613.36 Electron/32.0.1 Safari/537.36" version="24.7.17">
  <diagram name="Página-1" id="_Rrj-t6cQbjoD22pVHF7">
    <mxGraphModel dx="1195" dy="1501" grid="0" gridSize="10" guides="1" tooltips="1" connect="1" arrows="1" fold="1" page="0" pageScale="1" pageWidth="827" pageHeight="1169" math="0" shadow="0">
      <root>
        <mxCell id="0" />
        <mxCell id="1" parent="0" />
        <mxCell id="8hqvGDAGfUCHUqX6YHru-1" value="Usuário" style="shape=umlActor;verticalLabelPosition=bottom;verticalAlign=top;html=1;" parent="1" vertex="1">
          <mxGeometry x="320" y="70" width="30" height="60" as="geometry" />
        </mxCell>
        <mxCell id="8hqvGDAGfUCHUqX6YHru-2" value="" style="endArrow=none;dashed=1;html=1;rounded=0;" parent="1" edge="1">
          <mxGeometry width="50" height="50" relative="1" as="geometry">
            <mxPoint x="335" y="440" as="sourcePoint" />
            <mxPoint x="334.72" y="160" as="targetPoint" />
          </mxGeometry>
        </mxCell>
        <mxCell id="8hqvGDAGfUCHUqX6YHru-3" style="edgeStyle=orthogonalEdgeStyle;rounded=0;orthogonalLoop=1;jettySize=auto;html=1;curved=0;" parent="1" edge="1">
          <mxGeometry relative="1" as="geometry">
            <mxPoint x="340" y="200" as="sourcePoint" />
            <mxPoint x="475" y="200" as="targetPoint" />
            <Array as="points" />
          </mxGeometry>
        </mxCell>
        <mxCell id="8hqvGDAGfUCHUqX6YHru-4" value="modificarOrdem()" style="edgeLabel;html=1;align=center;verticalAlign=middle;resizable=0;points=[];" parent="8hqvGDAGfUCHUqX6YHru-3" vertex="1" connectable="0">
          <mxGeometry x="-0.1276" y="1" relative="1" as="geometry">
            <mxPoint x="4" y="-7" as="offset" />
          </mxGeometry>
        </mxCell>
        <mxCell id="8hqvGDAGfUCHUqX6YHru-5" value="" style="html=1;points=[[0,0,0,0,5],[0,1,0,0,-5],[1,0,0,0,5],[1,1,0,0,-5]];perimeter=orthogonalPerimeter;outlineConnect=0;targetShapes=umlLifeline;portConstraint=eastwest;newEdgeStyle={&quot;curved&quot;:0,&quot;rounded&quot;:0};" parent="1" vertex="1">
          <mxGeometry x="330" y="180" width="10" height="230" as="geometry" />
        </mxCell>
        <mxCell id="8hqvGDAGfUCHUqX6YHru-6" value=":Usuario" style="shape=umlLifeline;perimeter=lifelinePerimeter;whiteSpace=wrap;html=1;container=1;dropTarget=0;collapsible=0;recursiveResize=0;outlineConnect=0;portConstraint=eastwest;newEdgeStyle={&quot;curved&quot;:0,&quot;rounded&quot;:0};" parent="1" vertex="1">
          <mxGeometry x="552" y="100" width="140" height="340" as="geometry" />
        </mxCell>
        <mxCell id="8hqvGDAGfUCHUqX6YHru-7" value="" style="html=1;points=[[0,0,0,0,5],[0,1,0,0,-5],[1,0,0,0,5],[1,1,0,0,-5]];perimeter=orthogonalPerimeter;outlineConnect=0;targetShapes=umlLifeline;portConstraint=eastwest;newEdgeStyle={&quot;curved&quot;:0,&quot;rounded&quot;:0};" parent="8hqvGDAGfUCHUqX6YHru-6" vertex="1">
          <mxGeometry x="65" y="231" width="10" height="79" as="geometry" />
        </mxCell>
        <mxCell id="8hqvGDAGfUCHUqX6YHru-8" value=":APIB3" style="shape=umlLifeline;perimeter=lifelinePerimeter;whiteSpace=wrap;html=1;container=1;dropTarget=0;collapsible=0;recursiveResize=0;outlineConnect=0;portConstraint=eastwest;newEdgeStyle={&quot;curved&quot;:0,&quot;rounded&quot;:0};" parent="1" vertex="1">
          <mxGeometry x="700" y="101" width="130" height="339" as="geometry" />
        </mxCell>
        <mxCell id="8hqvGDAGfUCHUqX6YHru-9" value="" style="html=1;points=[[0,0,0,0,5],[0,1,0,0,-5],[1,0,0,0,5],[1,1,0,0,-5]];perimeter=orthogonalPerimeter;outlineConnect=0;targetShapes=umlLifeline;portConstraint=eastwest;newEdgeStyle={&quot;curved&quot;:0,&quot;rounded&quot;:0};" parent="8hqvGDAGfUCHUqX6YHru-8" vertex="1">
          <mxGeometry x="60" y="119" width="10" height="111" as="geometry" />
        </mxCell>
        <mxCell id="8hqvGDAGfUCHUqX6YHru-10" value="" style="edgeStyle=none;orthogonalLoop=1;jettySize=auto;html=1;rounded=0;dashed=1;startArrow=none;startFill=0;endArrow=open;endFill=0;exitX=0;exitY=1;exitDx=0;exitDy=-5;exitPerimeter=0;" parent="1" source="8hqvGDAGfUCHUqX6YHru-7" target="8hqvGDAGfUCHUqX6YHru-5" edge="1">
          <mxGeometry width="100" relative="1" as="geometry">
            <mxPoint x="690" y="441" as="sourcePoint" />
            <mxPoint x="342" y="442" as="targetPoint" />
            <Array as="points" />
          </mxGeometry>
        </mxCell>
        <mxCell id="8hqvGDAGfUCHUqX6YHru-11" value="Confirmação de&amp;nbsp;&lt;div&gt;modificação&amp;nbsp;&lt;/div&gt;" style="edgeLabel;html=1;align=center;verticalAlign=middle;resizable=0;points=[];" parent="8hqvGDAGfUCHUqX6YHru-10" vertex="1" connectable="0">
          <mxGeometry x="-0.1602" y="1" relative="1" as="geometry">
            <mxPoint x="-86" y="-18" as="offset" />
          </mxGeometry>
        </mxCell>
        <mxCell id="8hqvGDAGfUCHUqX6YHru-12" value="ordem:Ordem" style="shape=umlLifeline;perimeter=lifelinePerimeter;whiteSpace=wrap;html=1;container=1;dropTarget=0;collapsible=0;recursiveResize=0;outlineConnect=0;portConstraint=eastwest;newEdgeStyle={&quot;curved&quot;:0,&quot;rounded&quot;:0};" parent="1" vertex="1">
          <mxGeometry x="414" y="100" width="130" height="340" as="geometry" />
        </mxCell>
        <mxCell id="8hqvGDAGfUCHUqX6YHru-13" value="" style="html=1;points=[[0,0,0,0,5],[0,1,0,0,-5],[1,0,0,0,5],[1,1,0,0,-5]];perimeter=orthogonalPerimeter;outlineConnect=0;targetShapes=umlLifeline;portConstraint=eastwest;newEdgeStyle={&quot;curved&quot;:0,&quot;rounded&quot;:0};" parent="8hqvGDAGfUCHUqX6YHru-12" vertex="1">
          <mxGeometry x="60" y="99" width="10" height="93" as="geometry" />
        </mxCell>
        <mxCell id="8hqvGDAGfUCHUqX6YHru-14" value="" style="endArrow=classic;html=1;rounded=0;" parent="1" source="8hqvGDAGfUCHUqX6YHru-9" target="8hqvGDAGfUCHUqX6YHru-7" edge="1">
          <mxGeometry width="50" height="50" relative="1" as="geometry">
            <mxPoint x="747" y="331" as="sourcePoint" />
            <mxPoint x="627" y="415" as="targetPoint" />
          </mxGeometry>
        </mxCell>
        <mxCell id="8hqvGDAGfUCHUqX6YHru-15" value="adicionarNotificacao()" style="edgeLabel;html=1;align=center;verticalAlign=middle;resizable=0;points=[];" parent="8hqvGDAGfUCHUqX6YHru-14" vertex="1" connectable="0">
          <mxGeometry x="0.329" y="-2" relative="1" as="geometry">
            <mxPoint x="25" y="31" as="offset" />
          </mxGeometry>
        </mxCell>
        <mxCell id="8hqvGDAGfUCHUqX6YHru-16" style="edgeStyle=orthogonalEdgeStyle;rounded=0;orthogonalLoop=1;jettySize=auto;html=1;curved=0;exitX=1;exitY=1;exitDx=0;exitDy=0;exitPerimeter=0;" parent="1" target="8hqvGDAGfUCHUqX6YHru-8" edge="1">
          <mxGeometry relative="1" as="geometry">
            <mxPoint x="483.9999999999999" y="218.24" as="sourcePoint" />
            <mxPoint x="854.5" y="271.75724137931036" as="targetPoint" />
            <Array as="points">
              <mxPoint x="484" y="281" />
            </Array>
          </mxGeometry>
        </mxCell>
        <mxCell id="8hqvGDAGfUCHUqX6YHru-17" value="modificarOrdem(ordem)" style="edgeLabel;html=1;align=center;verticalAlign=middle;resizable=0;points=[];" parent="8hqvGDAGfUCHUqX6YHru-16" vertex="1" connectable="0">
          <mxGeometry x="-0.1276" y="1" relative="1" as="geometry">
            <mxPoint x="-25" y="-10" as="offset" />
          </mxGeometry>
        </mxCell>
        <mxCell id="8hqvGDAGfUCHUqX6YHru-18" value="API B3" style="shape=umlActor;verticalLabelPosition=bottom;verticalAlign=top;html=1;" parent="1" vertex="1">
          <mxGeometry x="880" y="80" width="30" height="60" as="geometry" />
        </mxCell>
        <mxCell id="8hqvGDAGfUCHUqX6YHru-19" value="" style="endArrow=none;dashed=1;html=1;rounded=0;" parent="1" source="8hqvGDAGfUCHUqX6YHru-21" edge="1">
          <mxGeometry width="50" height="50" relative="1" as="geometry">
            <mxPoint x="894.99" y="450" as="sourcePoint" />
            <mxPoint x="894.71" y="170" as="targetPoint" />
          </mxGeometry>
        </mxCell>
        <mxCell id="8hqvGDAGfUCHUqX6YHru-20" value="" style="endArrow=none;dashed=1;html=1;rounded=0;" parent="1" target="8hqvGDAGfUCHUqX6YHru-21" edge="1">
          <mxGeometry width="50" height="50" relative="1" as="geometry">
            <mxPoint x="894.99" y="450" as="sourcePoint" />
            <mxPoint x="894.71" y="170" as="targetPoint" />
          </mxGeometry>
        </mxCell>
        <mxCell id="8hqvGDAGfUCHUqX6YHru-21" value="" style="html=1;points=[[0,0,0,0,5],[0,1,0,0,-5],[1,0,0,0,5],[1,1,0,0,-5]];perimeter=orthogonalPerimeter;outlineConnect=0;targetShapes=umlLifeline;portConstraint=eastwest;newEdgeStyle={&quot;curved&quot;:0,&quot;rounded&quot;:0};" parent="1" vertex="1">
          <mxGeometry x="890" y="242" width="10" height="88" as="geometry" />
        </mxCell>
        <mxCell id="8hqvGDAGfUCHUqX6YHru-22" value="" style="endArrow=classic;html=1;rounded=0;" parent="1" edge="1">
          <mxGeometry width="50" height="50" relative="1" as="geometry">
            <mxPoint x="771" y="290" as="sourcePoint" />
            <mxPoint x="892" y="290" as="targetPoint" />
          </mxGeometry>
        </mxCell>
        <mxCell id="8hqvGDAGfUCHUqX6YHru-23" value="modifica ordem" style="edgeLabel;html=1;align=center;verticalAlign=middle;resizable=0;points=[];" parent="8hqvGDAGfUCHUqX6YHru-22" vertex="1" connectable="0">
          <mxGeometry x="-0.4404" relative="1" as="geometry">
            <mxPoint x="20" y="-9" as="offset" />
          </mxGeometry>
        </mxCell>
        <mxCell id="8hqvGDAGfUCHUqX6YHru-24" value="" style="endArrow=none;html=1;rounded=0;startArrow=open;startFill=0;endFill=0;dashed=1;" parent="1" edge="1">
          <mxGeometry width="50" height="50" relative="1" as="geometry">
            <mxPoint x="769" y="329" as="sourcePoint" />
            <mxPoint x="890" y="329" as="targetPoint" />
          </mxGeometry>
        </mxCell>
        <mxCell id="8hqvGDAGfUCHUqX6YHru-25" value="Confirmação de&lt;div&gt;modificação da ordem&lt;/div&gt;" style="edgeLabel;html=1;align=center;verticalAlign=middle;resizable=0;points=[];" parent="8hqvGDAGfUCHUqX6YHru-24" vertex="1" connectable="0">
          <mxGeometry x="-0.4404" relative="1" as="geometry">
            <mxPoint x="26" y="-16" as="offset" />
          </mxGeometry>
        </mxCell>
        <mxCell id="8hqvGDAGfUCHUqX6YHru-26" style="edgeStyle=orthogonalEdgeStyle;rounded=0;orthogonalLoop=1;jettySize=auto;html=1;curved=0;startArrow=classic;startFill=1;endArrow=none;endFill=0;" parent="1" edge="1">
          <mxGeometry relative="1" as="geometry">
            <mxPoint x="340" y="258" as="sourcePoint" />
            <mxPoint x="475" y="258" as="targetPoint" />
            <Array as="points" />
          </mxGeometry>
        </mxCell>
        <mxCell id="8hqvGDAGfUCHUqX6YHru-27" value="solicita dados da ordem&lt;div&gt;(nova quantidade,&amp;nbsp;&lt;/div&gt;&lt;div&gt;novo preço,&amp;nbsp;&lt;/div&gt;&lt;div&gt;novo tipo de execucao)&lt;/div&gt;" style="edgeLabel;html=1;align=center;verticalAlign=middle;resizable=0;points=[];" parent="8hqvGDAGfUCHUqX6YHru-26" vertex="1" connectable="0">
          <mxGeometry x="-0.1276" y="1" relative="1" as="geometry">
            <mxPoint x="10" y="-28" as="offset" />
          </mxGeometry>
        </mxCell>
        <mxCell id="8hqvGDAGfUCHUqX6YHru-28" style="edgeStyle=orthogonalEdgeStyle;rounded=0;orthogonalLoop=1;jettySize=auto;html=1;curved=0;startArrow=none;startFill=0;endArrow=open;endFill=0;dashed=1;" parent="1" edge="1">
          <mxGeometry relative="1" as="geometry">
            <mxPoint x="341" y="274" as="sourcePoint" />
            <mxPoint x="476" y="274" as="targetPoint" />
            <Array as="points" />
          </mxGeometry>
        </mxCell>
        <mxCell id="8hqvGDAGfUCHUqX6YHru-29" value="informações da ordem&amp;nbsp;" style="edgeLabel;html=1;align=center;verticalAlign=middle;resizable=0;points=[];" parent="8hqvGDAGfUCHUqX6YHru-28" vertex="1" connectable="0">
          <mxGeometry x="-0.1276" y="1" relative="1" as="geometry">
            <mxPoint x="4" y="-8" as="offset" />
          </mxGeometry>
        </mxCell>
        <mxCell id="8hqvGDAGfUCHUqX6YHru-30" value="&lt;font style=&quot;font-size: 10px;&quot;&gt;[se ordem de venda pendente]&lt;/font&gt;" style="text;html=1;align=center;verticalAlign=middle;resizable=0;points=[];autosize=1;strokeColor=none;fillColor=none;fontSize=16;" parent="1" vertex="1">
          <mxGeometry x="258" y="135" width="154" height="31" as="geometry" />
        </mxCell>
        <mxCell id="36aUGT-M8l8VJdll6sSB-1" value="Usuário" style="shape=umlActor;verticalLabelPosition=bottom;verticalAlign=top;html=1;" vertex="1" parent="1">
          <mxGeometry x="226" y="-483" width="30" height="60" as="geometry" />
        </mxCell>
        <mxCell id="36aUGT-M8l8VJdll6sSB-2" value="" style="endArrow=none;dashed=1;html=1;rounded=0;" edge="1" parent="1" source="36aUGT-M8l8VJdll6sSB-28">
          <mxGeometry width="50" height="50" relative="1" as="geometry">
            <mxPoint x="241" y="-113" as="sourcePoint" />
            <mxPoint x="240.72000000000003" y="-393" as="targetPoint" />
          </mxGeometry>
        </mxCell>
        <mxCell id="36aUGT-M8l8VJdll6sSB-3" style="edgeStyle=orthogonalEdgeStyle;rounded=0;orthogonalLoop=1;jettySize=auto;html=1;curved=0;" edge="1" parent="1">
          <mxGeometry relative="1" as="geometry">
            <mxPoint x="425" y="-353" as="sourcePoint" />
            <mxPoint x="560" y="-353" as="targetPoint" />
            <Array as="points" />
          </mxGeometry>
        </mxCell>
        <mxCell id="36aUGT-M8l8VJdll6sSB-4" value="modificarOrdem(ordem)" style="edgeLabel;html=1;align=center;verticalAlign=middle;resizable=0;points=[];" vertex="1" connectable="0" parent="36aUGT-M8l8VJdll6sSB-3">
          <mxGeometry x="-0.1276" y="1" relative="1" as="geometry">
            <mxPoint x="7" y="-7" as="offset" />
          </mxGeometry>
        </mxCell>
        <mxCell id="36aUGT-M8l8VJdll6sSB-5" value=":Usuario" style="shape=umlLifeline;perimeter=lifelinePerimeter;whiteSpace=wrap;html=1;container=1;dropTarget=0;collapsible=0;recursiveResize=0;outlineConnect=0;portConstraint=eastwest;newEdgeStyle={&quot;curved&quot;:0,&quot;rounded&quot;:0};" vertex="1" parent="1">
          <mxGeometry x="637" y="-453" width="140" height="340" as="geometry" />
        </mxCell>
        <mxCell id="36aUGT-M8l8VJdll6sSB-6" value="" style="html=1;points=[[0,0,0,0,5],[0,1,0,0,-5],[1,0,0,0,5],[1,1,0,0,-5]];perimeter=orthogonalPerimeter;outlineConnect=0;targetShapes=umlLifeline;portConstraint=eastwest;newEdgeStyle={&quot;curved&quot;:0,&quot;rounded&quot;:0};" vertex="1" parent="36aUGT-M8l8VJdll6sSB-5">
          <mxGeometry x="65" y="250" width="10" height="26" as="geometry" />
        </mxCell>
        <mxCell id="36aUGT-M8l8VJdll6sSB-7" value=":APIB3" style="shape=umlLifeline;perimeter=lifelinePerimeter;whiteSpace=wrap;html=1;container=1;dropTarget=0;collapsible=0;recursiveResize=0;outlineConnect=0;portConstraint=eastwest;newEdgeStyle={&quot;curved&quot;:0,&quot;rounded&quot;:0};" vertex="1" parent="1">
          <mxGeometry x="785" y="-452" width="130" height="339" as="geometry" />
        </mxCell>
        <mxCell id="36aUGT-M8l8VJdll6sSB-8" value="" style="html=1;points=[[0,0,0,0,5],[0,1,0,0,-5],[1,0,0,0,5],[1,1,0,0,-5]];perimeter=orthogonalPerimeter;outlineConnect=0;targetShapes=umlLifeline;portConstraint=eastwest;newEdgeStyle={&quot;curved&quot;:0,&quot;rounded&quot;:0};" vertex="1" parent="36aUGT-M8l8VJdll6sSB-7">
          <mxGeometry x="60" y="212" width="10" height="38" as="geometry" />
        </mxCell>
        <mxCell id="36aUGT-M8l8VJdll6sSB-9" value="ordem:Ordem" style="shape=umlLifeline;perimeter=lifelinePerimeter;whiteSpace=wrap;html=1;container=1;dropTarget=0;collapsible=0;recursiveResize=0;outlineConnect=0;portConstraint=eastwest;newEdgeStyle={&quot;curved&quot;:0,&quot;rounded&quot;:0};" vertex="1" parent="1">
          <mxGeometry x="499" y="-453" width="130" height="340" as="geometry" />
        </mxCell>
        <mxCell id="36aUGT-M8l8VJdll6sSB-10" value="" style="html=1;points=[[0,0,0,0,5],[0,1,0,0,-5],[1,0,0,0,5],[1,1,0,0,-5]];perimeter=orthogonalPerimeter;outlineConnect=0;targetShapes=umlLifeline;portConstraint=eastwest;newEdgeStyle={&quot;curved&quot;:0,&quot;rounded&quot;:0};" vertex="1" parent="36aUGT-M8l8VJdll6sSB-9">
          <mxGeometry x="60" y="99" width="10" height="114" as="geometry" />
        </mxCell>
        <mxCell id="36aUGT-M8l8VJdll6sSB-11" value="" style="endArrow=classic;html=1;rounded=0;" edge="1" parent="1">
          <mxGeometry width="50" height="50" relative="1" as="geometry">
            <mxPoint x="845" y="-202" as="sourcePoint" />
            <mxPoint x="712" y="-202" as="targetPoint" />
          </mxGeometry>
        </mxCell>
        <mxCell id="36aUGT-M8l8VJdll6sSB-12" value="adicionarNotificacao()" style="edgeLabel;html=1;align=center;verticalAlign=middle;resizable=0;points=[];" vertex="1" connectable="0" parent="36aUGT-M8l8VJdll6sSB-11">
          <mxGeometry x="0.329" y="-2" relative="1" as="geometry">
            <mxPoint x="23" y="10" as="offset" />
          </mxGeometry>
        </mxCell>
        <mxCell id="36aUGT-M8l8VJdll6sSB-13" style="edgeStyle=orthogonalEdgeStyle;rounded=0;orthogonalLoop=1;jettySize=auto;html=1;curved=0;exitX=1;exitY=1;exitDx=0;exitDy=0;exitPerimeter=0;" edge="1" parent="1">
          <mxGeometry relative="1" as="geometry">
            <mxPoint x="568.9999999999999" y="-303" as="sourcePoint" />
            <mxPoint x="845" y="-240" as="targetPoint" />
            <Array as="points">
              <mxPoint x="569" y="-240" />
            </Array>
          </mxGeometry>
        </mxCell>
        <mxCell id="36aUGT-M8l8VJdll6sSB-14" value="modificarOrdem(ordem)" style="edgeLabel;html=1;align=center;verticalAlign=middle;resizable=0;points=[];" vertex="1" connectable="0" parent="36aUGT-M8l8VJdll6sSB-13">
          <mxGeometry x="-0.1276" y="1" relative="1" as="geometry">
            <mxPoint x="-19" y="-7" as="offset" />
          </mxGeometry>
        </mxCell>
        <mxCell id="36aUGT-M8l8VJdll6sSB-15" value="API B3" style="shape=umlActor;verticalLabelPosition=bottom;verticalAlign=top;html=1;" vertex="1" parent="1">
          <mxGeometry x="965" y="-473" width="30" height="60" as="geometry" />
        </mxCell>
        <mxCell id="36aUGT-M8l8VJdll6sSB-16" value="" style="endArrow=none;dashed=1;html=1;rounded=0;" edge="1" parent="1" source="36aUGT-M8l8VJdll6sSB-18">
          <mxGeometry width="50" height="50" relative="1" as="geometry">
            <mxPoint x="979.99" y="-103" as="sourcePoint" />
            <mxPoint x="979.71" y="-383" as="targetPoint" />
          </mxGeometry>
        </mxCell>
        <mxCell id="36aUGT-M8l8VJdll6sSB-17" value="" style="endArrow=none;dashed=1;html=1;rounded=0;" edge="1" parent="1" target="36aUGT-M8l8VJdll6sSB-18">
          <mxGeometry width="50" height="50" relative="1" as="geometry">
            <mxPoint x="979.99" y="-103" as="sourcePoint" />
            <mxPoint x="979.71" y="-383" as="targetPoint" />
          </mxGeometry>
        </mxCell>
        <mxCell id="36aUGT-M8l8VJdll6sSB-18" value="" style="html=1;points=[[0,0,0,0,5],[0,1,0,0,-5],[1,0,0,0,5],[1,1,0,0,-5]];perimeter=orthogonalPerimeter;outlineConnect=0;targetShapes=umlLifeline;portConstraint=eastwest;newEdgeStyle={&quot;curved&quot;:0,&quot;rounded&quot;:0};" vertex="1" parent="1">
          <mxGeometry x="975" y="-234" width="10" height="26" as="geometry" />
        </mxCell>
        <mxCell id="36aUGT-M8l8VJdll6sSB-19" value="" style="endArrow=classic;html=1;rounded=0;" edge="1" parent="1">
          <mxGeometry width="50" height="50" relative="1" as="geometry">
            <mxPoint x="855" y="-234" as="sourcePoint" />
            <mxPoint x="976" y="-234" as="targetPoint" />
          </mxGeometry>
        </mxCell>
        <mxCell id="36aUGT-M8l8VJdll6sSB-20" value="modifica ordem" style="edgeLabel;html=1;align=center;verticalAlign=middle;resizable=0;points=[];" vertex="1" connectable="0" parent="36aUGT-M8l8VJdll6sSB-19">
          <mxGeometry x="-0.4404" relative="1" as="geometry">
            <mxPoint x="20" y="-9" as="offset" />
          </mxGeometry>
        </mxCell>
        <mxCell id="36aUGT-M8l8VJdll6sSB-21" value="" style="endArrow=none;html=1;rounded=0;startArrow=open;startFill=0;endFill=0;dashed=1;" edge="1" parent="1">
          <mxGeometry width="50" height="50" relative="1" as="geometry">
            <mxPoint x="855" y="-208" as="sourcePoint" />
            <mxPoint x="976" y="-208" as="targetPoint" />
          </mxGeometry>
        </mxCell>
        <mxCell id="36aUGT-M8l8VJdll6sSB-22" value="confirmação de&lt;div&gt;modificação da ordem&lt;/div&gt;" style="edgeLabel;html=1;align=center;verticalAlign=middle;resizable=0;points=[];" vertex="1" connectable="0" parent="36aUGT-M8l8VJdll6sSB-21">
          <mxGeometry x="-0.4404" relative="1" as="geometry">
            <mxPoint x="26" y="16" as="offset" />
          </mxGeometry>
        </mxCell>
        <mxCell id="36aUGT-M8l8VJdll6sSB-23" style="edgeStyle=orthogonalEdgeStyle;rounded=0;orthogonalLoop=1;jettySize=auto;html=1;curved=0;startArrow=classic;startFill=1;endArrow=none;endFill=0;" edge="1" parent="1">
          <mxGeometry relative="1" as="geometry">
            <mxPoint x="423" y="-309" as="sourcePoint" />
            <mxPoint x="558" y="-309" as="targetPoint" />
            <Array as="points" />
          </mxGeometry>
        </mxCell>
        <mxCell id="36aUGT-M8l8VJdll6sSB-24" value="solicita dados da ordem&lt;div style=&quot;font-size: 10px;&quot;&gt;a serem modificados&lt;/div&gt;" style="edgeLabel;html=1;align=center;verticalAlign=middle;resizable=0;points=[];fontSize=10;" vertex="1" connectable="0" parent="36aUGT-M8l8VJdll6sSB-23">
          <mxGeometry x="-0.1276" y="1" relative="1" as="geometry">
            <mxPoint x="10" y="13" as="offset" />
          </mxGeometry>
        </mxCell>
        <mxCell id="36aUGT-M8l8VJdll6sSB-25" style="edgeStyle=orthogonalEdgeStyle;rounded=0;orthogonalLoop=1;jettySize=auto;html=1;curved=0;startArrow=none;startFill=0;endArrow=open;endFill=0;dashed=1;" edge="1" parent="1">
          <mxGeometry relative="1" as="geometry">
            <mxPoint x="425" y="-248" as="sourcePoint" />
            <mxPoint x="560" y="-248" as="targetPoint" />
            <Array as="points" />
          </mxGeometry>
        </mxCell>
        <mxCell id="36aUGT-M8l8VJdll6sSB-26" value="novos dados da ordem" style="edgeLabel;html=1;align=center;verticalAlign=middle;resizable=0;points=[];fontSize=9;" vertex="1" connectable="0" parent="36aUGT-M8l8VJdll6sSB-25">
          <mxGeometry x="-0.1276" y="1" relative="1" as="geometry">
            <mxPoint x="6" y="8" as="offset" />
          </mxGeometry>
        </mxCell>
        <mxCell id="36aUGT-M8l8VJdll6sSB-27" value="" style="endArrow=none;dashed=1;html=1;rounded=0;" edge="1" parent="1" target="36aUGT-M8l8VJdll6sSB-28">
          <mxGeometry width="50" height="50" relative="1" as="geometry">
            <mxPoint x="241" y="-95" as="sourcePoint" />
            <mxPoint x="251.72000000000003" y="-393" as="targetPoint" />
          </mxGeometry>
        </mxCell>
        <mxCell id="36aUGT-M8l8VJdll6sSB-28" value="" style="html=1;points=[[0,0,0,0,5],[0,1,0,0,-5],[1,0,0,0,5],[1,1,0,0,-5]];perimeter=orthogonalPerimeter;outlineConnect=0;targetShapes=umlLifeline;portConstraint=eastwest;newEdgeStyle={&quot;curved&quot;:0,&quot;rounded&quot;:0};" vertex="1" parent="1">
          <mxGeometry x="236" y="-368" width="10" height="247" as="geometry" />
        </mxCell>
        <mxCell id="36aUGT-M8l8VJdll6sSB-29" value="&lt;b&gt;:Interface&lt;/b&gt;" style="shape=umlLifeline;perimeter=lifelinePerimeter;whiteSpace=wrap;html=1;container=0;dropTarget=0;collapsible=0;recursiveResize=0;outlineConnect=0;portConstraint=eastwest;newEdgeStyle={&quot;edgeStyle&quot;:&quot;elbowEdgeStyle&quot;,&quot;elbow&quot;:&quot;vertical&quot;,&quot;curved&quot;:0,&quot;rounded&quot;:0};" vertex="1" parent="1">
          <mxGeometry x="367" y="-454" width="104" height="360" as="geometry" />
        </mxCell>
        <mxCell id="36aUGT-M8l8VJdll6sSB-30" value="" style="html=1;points=[];perimeter=orthogonalPerimeter;outlineConnect=0;targetShapes=umlLifeline;portConstraint=eastwest;newEdgeStyle={&quot;edgeStyle&quot;:&quot;elbowEdgeStyle&quot;,&quot;elbow&quot;:&quot;vertical&quot;,&quot;curved&quot;:0,&quot;rounded&quot;:0};" vertex="1" parent="36aUGT-M8l8VJdll6sSB-29">
          <mxGeometry x="47" y="77" width="10" height="243" as="geometry" />
        </mxCell>
        <mxCell id="36aUGT-M8l8VJdll6sSB-31" value="[se logado e a ordem de&amp;nbsp;&lt;div style=&quot;font-size: 10px;&quot;&gt;venda estar pendente]&lt;/div&gt;" style="text;html=1;align=center;verticalAlign=middle;resizable=0;points=[];autosize=1;strokeColor=none;fillColor=none;fontSize=10;" vertex="1" parent="1">
          <mxGeometry x="269" y="-399" width="129" height="36" as="geometry" />
        </mxCell>
        <mxCell id="36aUGT-M8l8VJdll6sSB-32" value="" style="endArrow=classic;html=1;rounded=0;fontSize=12;startSize=8;endSize=8;curved=1;" edge="1" parent="1" target="36aUGT-M8l8VJdll6sSB-30">
          <mxGeometry width="50" height="50" relative="1" as="geometry">
            <mxPoint x="246" y="-360" as="sourcePoint" />
            <mxPoint x="400" y="-360" as="targetPoint" />
          </mxGeometry>
        </mxCell>
        <mxCell id="36aUGT-M8l8VJdll6sSB-33" value="entra na tela de ordens pendentes&lt;div style=&quot;font-size: 10px;&quot;&gt;e seleciona ordem a ser&lt;/div&gt;&lt;div style=&quot;font-size: 10px;&quot;&gt;modificada&lt;/div&gt;" style="edgeLabel;html=1;align=center;verticalAlign=middle;resizable=0;points=[];fontSize=10;" vertex="1" connectable="0" parent="36aUGT-M8l8VJdll6sSB-32">
          <mxGeometry x="-0.0496" y="-2" relative="1" as="geometry">
            <mxPoint x="2" y="21" as="offset" />
          </mxGeometry>
        </mxCell>
        <mxCell id="36aUGT-M8l8VJdll6sSB-34" style="edgeStyle=orthogonalEdgeStyle;rounded=0;orthogonalLoop=1;jettySize=auto;html=1;curved=0;startArrow=classic;startFill=1;endArrow=none;endFill=0;" edge="1" parent="1">
          <mxGeometry relative="1" as="geometry">
            <mxPoint x="247" y="-301" as="sourcePoint" />
            <mxPoint x="414" y="-301" as="targetPoint" />
            <Array as="points" />
          </mxGeometry>
        </mxCell>
        <mxCell id="36aUGT-M8l8VJdll6sSB-35" value="solicita dados da ordem a serem&lt;div&gt;modificados (novo valor, novo tipo&lt;/div&gt;&lt;div&gt;de execução, etc)&lt;/div&gt;" style="edgeLabel;html=1;align=center;verticalAlign=middle;resizable=0;points=[];fontSize=9;" vertex="1" connectable="0" parent="36aUGT-M8l8VJdll6sSB-34">
          <mxGeometry x="-0.1276" y="1" relative="1" as="geometry">
            <mxPoint x="11" y="22" as="offset" />
          </mxGeometry>
        </mxCell>
        <mxCell id="36aUGT-M8l8VJdll6sSB-36" value="" style="endArrow=open;html=1;rounded=0;fontSize=12;startSize=8;endSize=8;curved=1;endFill=0;dashed=1;" edge="1" parent="1">
          <mxGeometry width="50" height="50" relative="1" as="geometry">
            <mxPoint x="246" y="-253" as="sourcePoint" />
            <mxPoint x="414" y="-253" as="targetPoint" />
          </mxGeometry>
        </mxCell>
        <mxCell id="36aUGT-M8l8VJdll6sSB-37" value="novos dados da ordem" style="edgeLabel;html=1;align=center;verticalAlign=middle;resizable=0;points=[];fontSize=8;" vertex="1" connectable="0" parent="36aUGT-M8l8VJdll6sSB-36">
          <mxGeometry x="-0.1746" y="-1" relative="1" as="geometry">
            <mxPoint x="10" y="6" as="offset" />
          </mxGeometry>
        </mxCell>
        <mxCell id="36aUGT-M8l8VJdll6sSB-38" value="" style="edgeStyle=none;orthogonalLoop=1;jettySize=auto;html=1;rounded=0;startArrow=none;startFill=0;endArrow=block;endFill=1;exitX=0;exitY=1;exitDx=0;exitDy=-5;exitPerimeter=0;" edge="1" parent="1">
          <mxGeometry width="100" relative="1" as="geometry">
            <mxPoint x="702" y="-177" as="sourcePoint" />
            <mxPoint x="425" y="-176" as="targetPoint" />
            <Array as="points" />
          </mxGeometry>
        </mxCell>
        <mxCell id="36aUGT-M8l8VJdll6sSB-39" value="emiteNotificacao()" style="edgeLabel;html=1;align=center;verticalAlign=middle;resizable=0;points=[];" vertex="1" connectable="0" parent="36aUGT-M8l8VJdll6sSB-38">
          <mxGeometry x="-0.1602" y="1" relative="1" as="geometry">
            <mxPoint x="63" y="-9" as="offset" />
          </mxGeometry>
        </mxCell>
        <mxCell id="36aUGT-M8l8VJdll6sSB-40" value="" style="endArrow=classic;html=1;rounded=0;fontSize=12;startSize=8;endSize=8;curved=1;" edge="1" parent="1">
          <mxGeometry width="50" height="50" relative="1" as="geometry">
            <mxPoint x="413" y="-161" as="sourcePoint" />
            <mxPoint x="248" y="-161" as="targetPoint" />
          </mxGeometry>
        </mxCell>
        <mxCell id="36aUGT-M8l8VJdll6sSB-41" value="confirmação de&lt;div style=&quot;font-size: 10px;&quot;&gt;modificação&lt;/div&gt;" style="edgeLabel;html=1;align=center;verticalAlign=middle;resizable=0;points=[];fontSize=10;" vertex="1" connectable="0" parent="36aUGT-M8l8VJdll6sSB-40">
          <mxGeometry x="0.1055" y="-1" relative="1" as="geometry">
            <mxPoint x="5" y="16" as="offset" />
          </mxGeometry>
        </mxCell>
        <mxCell id="36aUGT-M8l8VJdll6sSB-42" value="UC-16&lt;div&gt;Modificar ordem de&lt;/div&gt;&lt;div&gt;venda&lt;/div&gt;" style="strokeWidth=2;html=1;shape=mxgraph.flowchart.start_1;whiteSpace=wrap;" vertex="1" parent="1">
          <mxGeometry x="557" y="-574" width="134" height="83" as="geometry" />
        </mxCell>
      </root>
    </mxGraphModel>
  </diagram>
</mxfile>
